<svg xmlns="http://www.w3.org/2000/svg" fill="none" viewBox="0 0 24 24"><path fill="#000" fill-rule="evenodd" d="M1 5.5a3 3 0 0 1 3-3h16a3 3 0 0 1 3 3v11a3 3 0 0 1-3 3H4a3 3 0 0 1-3-3v-11Zm3-1a1 1 0 0 0-1 1v11a1 1 0 0 0 1 1h16a1 1 0 0 0 1-1v-11a1 1 0 0 0-1-1H4Z" clip-rule="evenodd"/><path fill="#000" fill-rule="evenodd" d="M9.538 6.613a1 1 0 0 1 1.035.068l5 3.5a1 1 0 0 1 0 1.638l-5 3.5A1 1 0 0 1 9 14.5v-7a1 1 0 0 1 .538-.887zM11 9.421v3.158L13.256 11 11 9.42zM18 22H6v-2h12v2z" clip-rule="evenodd"/></svg>