<svg xmlns="http://www.w3.org/2000/svg" enable-background="new 0 0 100 100" viewBox="0 0 100 100" id="Feedback">
  <path d="M70.2,69.4C85.4,69.4,98,57,98,41.6S85.6,13.8,70.2,13.8c-15.2,0-27.8,12.4-27.8,27.8C42.6,57,55,69.4,70.2,69.4z
		 M77.8,33.2H81c1.2,0,2,0.8,2,2s-0.8,2-2,2h-3.2c-1.2,0-2-0.8-2-2S76.6,33.2,77.8,33.2z M70.6,52.2c3.2,0,6.2-1.2,8.4-3.4
		c0.8-0.8,2-0.8,2.8,0s0.8,2,0,2.8c-3,3-7,4.6-11.2,4.6s-8.2-1.6-11.2-4.6c-0.8-0.8-0.8-2,0-2.8s2-0.8,2.8,0
		C64.4,50.8,67.4,52.2,70.6,52.2z M59.6,33.2h3.2c1.2,0,2,0.8,2,2s-0.8,2-2,2h-3.2c-1.2,0-2-0.8-2-2S58.4,33.2,59.6,33.2z" fill="#cc9b92" class="color000000 svgShape"></path>
  <path d="M29.8,86.2c11.4,0,21.2-6.6,25.4-16.6C49,66.2,43.8,60.6,41,54c-0.2,0-0.4,0.2-0.6,0.2h-3.2c-1.2,0-2-0.8-2-2s0.8-2,2-2
		h2.4c-0.8-2.6-1.2-5.6-1.2-8.4c0-3.2,0.4-6.2,1.4-9c-3.2-1.2-6.6-2-10.2-2C14.4,30.6,2,43.2,2,58.4S14.4,86.2,29.8,86.2z
		 M40.8,67.8c0.8,0.8,0.8,2,0,2.8s-2,0.8-2.8,0c-2.2-2.2-5.2-3.4-8.4-3.4s-6.2,1.2-8.4,3.4c-0.8,0.8-2,0.8-2.8,0s-0.8-2,0-2.8
		c3-3,7-4.6,11.2-4.6S37.8,64.6,40.8,67.8z M19,50h3.2c1.2,0,2,0.8,2,2s-0.8,2-2,2H19c-1.2,0-2-0.8-2-2S18,50,19,50z" fill="#cc9b92" class="color000000 svgShape"></path>
</svg>
