<svg xmlns="http://www.w3.org/2000/svg" fill="none" viewBox="0 0 35 27" id="group">
  <g filter="url(#a)" fill="#000000" class="color000000 svgShape">
    <path fill="#3bafda" d="M9.99881 16.5974H4.73687C4.52273 11.5316 8.96815 11.4346 11.2176 12.0194C10.4566 12.8042 10.088 15.3984 9.99881 16.5974Z" class="color000553 svgShape"></path>
    <path stroke="#003d53" stroke-width=".257" d="M9.99881 16.5974H4.73687C4.52273 11.5316 8.96815 11.4346 11.2176 12.0194C10.4566 12.8042 10.088 15.3984 9.99881 16.5974Z" class="colorStroke000553 svgStroke"></path>
  </g>
  <circle cx="16.842" cy="4.543" r="4.495" fill="#51d0ff" filter="url(#b)" class="colorff6b51 svgShape"></circle>
  <circle cx="9.136" cy="7.753" r="3.211" fill="#51d0ff" filter="url(#c)" class="colorff6b51 svgShape"></circle>
  <circle cx="24.738" cy="7.753" r="3.211" fill="#51d0ff" filter="url(#d)" class="colorff6b51 svgShape"></circle>
  <g filter="url(#e)" fill="#000000" class="color000000 svgShape">
    <path fill="#3bafda" d="M22.663 18.1729H10.8611C10.8611 16.5793 11.1772 15.6333 11.6334 14.1792C12.7866 10.943 15.1221 10.0081 15.8256 10.0873H18.1444C22.4014 11.2527 22.9306 15.9632 22.663 18.1729Z" class="color000553 svgShape"></path>
    <path stroke="#003d53" stroke-width=".257" d="M22.663 18.1729H10.8611C10.8611 16.5793 11.1772 15.6333 11.6334 14.1792C12.7866 10.943 15.1221 10.0081 15.8256 10.0873H18.1444C22.4014 11.2527 22.9306 15.9632 22.663 18.1729Z" class="colorStroke000553 svgStroke"></path>
  </g>
  <g filter="url(#f)" fill="#000000" class="color000000 svgShape">
    <path fill="#3bafda" d="M24.1902 11.7107C23.4483 11.6544 22.4132 12.0908 22.5022 12.1319C23.0769 12.5393 23.6144 15.669 23.7417 17.2744H29.0362C29.0761 16.8463 28.8564 15.6245 28.6765 14.2858C28.5327 13.2149 28.9574 12.1228 29.1877 11.7107C29.7686 10.6713 30.618 8.66162 30.618 7.27569L30.6844 4.13628C30.2061 3.1663 29.8096 3.73213 29.6712 4.13628C29.6602 4.67894 29.5815 6.06654 29.3557 7.27569C29.0733 8.78713 27.8442 10.365 27.0968 11.0294C26.3494 11.6938 25.3312 11.7972 24.1902 11.7107Z" class="color000553 svgShape"></path>
    <path stroke="#003d53" stroke-width=".257" d="M24.1902 11.7107C23.4483 11.6544 22.4132 12.0908 22.5022 12.1319C23.0769 12.5393 23.6144 15.669 23.7417 17.2744H29.0362C29.0761 16.8463 28.8564 15.6245 28.6765 14.2858C28.5327 13.2149 28.9574 12.1228 29.1877 11.7107C29.7686 10.6713 30.618 8.66162 30.618 7.27569L30.6844 4.13628C30.2061 3.1663 29.8096 3.73213 29.6712 4.13628C29.6602 4.67894 29.5815 6.06654 29.3557 7.27569C29.0733 8.78713 27.8442 10.365 27.0968 11.0294C26.3494 11.6938 25.3312 11.7972 24.1902 11.7107Z" class="colorStroke000553 svgStroke"></path>
  </g>
  <defs>
    <filter id="a" width="14.862" height="13.079" x=".601" y="11.647" color-interpolation-filters="sRGB" filterUnits="userSpaceOnUse">
      <feFlood flood-opacity="0" result="BackgroundImageFix"></feFlood>
      <feColorMatrix in="SourceAlpha" values="0 0 0 0 0 0 0 0 0 0 0 0 0 0 0 0 0 0 127 0"></feColorMatrix>
      <feOffset dy="4"></feOffset>
      <feGaussianBlur stdDeviation="2"></feGaussianBlur>
      <feColorMatrix values="0 0 0 0 0 0 0 0 0 0 0 0 0 0 0 0 0 0 0.25 0"></feColorMatrix>
      <feBlend in2="BackgroundImageFix" result="effect1_dropShadow"></feBlend>
      <feBlend in="SourceGraphic" in2="effect1_dropShadow" result="shape"></feBlend>
    </filter>
    <filter id="b" width="16.99" height="16.99" x="8.347" y=".048" color-interpolation-filters="sRGB" filterUnits="userSpaceOnUse">
      <feFlood flood-opacity="0" result="BackgroundImageFix"></feFlood>
      <feColorMatrix in="SourceAlpha" values="0 0 0 0 0 0 0 0 0 0 0 0 0 0 0 0 0 0 127 0"></feColorMatrix>
      <feOffset dy="4"></feOffset>
      <feGaussianBlur stdDeviation="2"></feGaussianBlur>
      <feColorMatrix values="0 0 0 0 0 0 0 0 0 0 0 0 0 0 0 0 0 0 0.25 0"></feColorMatrix>
      <feBlend in2="BackgroundImageFix" result="effect1_dropShadow"></feBlend>
      <feBlend in="SourceGraphic" in2="effect1_dropShadow" result="shape"></feBlend>
    </filter>
    <filter id="c" width="14.421" height="14.421" x="1.925" y="4.543" color-interpolation-filters="sRGB" filterUnits="userSpaceOnUse">
      <feFlood flood-opacity="0" result="BackgroundImageFix"></feFlood>
      <feColorMatrix in="SourceAlpha" values="0 0 0 0 0 0 0 0 0 0 0 0 0 0 0 0 0 0 127 0"></feColorMatrix>
      <feOffset dy="4"></feOffset>
      <feGaussianBlur stdDeviation="2"></feGaussianBlur>
      <feColorMatrix values="0 0 0 0 0 0 0 0 0 0 0 0 0 0 0 0 0 0 0.25 0"></feColorMatrix>
      <feBlend in2="BackgroundImageFix" result="effect1_dropShadow"></feBlend>
      <feBlend in="SourceGraphic" in2="effect1_dropShadow" result="shape"></feBlend>
    </filter>
    <filter id="d" width="14.421" height="14.421" x="17.527" y="4.543" color-interpolation-filters="sRGB" filterUnits="userSpaceOnUse">
      <feFlood flood-opacity="0" result="BackgroundImageFix"></feFlood>
      <feColorMatrix in="SourceAlpha" values="0 0 0 0 0 0 0 0 0 0 0 0 0 0 0 0 0 0 127 0"></feColorMatrix>
      <feOffset dy="4"></feOffset>
      <feGaussianBlur stdDeviation="2"></feGaussianBlur>
      <feColorMatrix values="0 0 0 0 0 0 0 0 0 0 0 0 0 0 0 0 0 0 0.25 0"></feColorMatrix>
      <feBlend in2="BackgroundImageFix" result="effect1_dropShadow"></feBlend>
      <feBlend in="SourceGraphic" in2="effect1_dropShadow" result="shape"></feBlend>
    </filter>
    <filter id="e" width="20.116" height="16.347" x="6.733" y="9.954" color-interpolation-filters="sRGB" filterUnits="userSpaceOnUse">
      <feFlood flood-opacity="0" result="BackgroundImageFix"></feFlood>
      <feColorMatrix in="SourceAlpha" values="0 0 0 0 0 0 0 0 0 0 0 0 0 0 0 0 0 0 127 0"></feColorMatrix>
      <feOffset dy="4"></feOffset>
      <feGaussianBlur stdDeviation="2"></feGaussianBlur>
      <feColorMatrix values="0 0 0 0 0 0 0 0 0 0 0 0 0 0 0 0 0 0 0.25 0"></feColorMatrix>
      <feBlend in2="BackgroundImageFix" result="effect1_dropShadow"></feBlend>
      <feBlend in="SourceGraphic" in2="effect1_dropShadow" result="shape"></feBlend>
    </filter>
    <filter id="f" width="16.445" height="21.93" x="18.368" y="3.472" color-interpolation-filters="sRGB" filterUnits="userSpaceOnUse">
      <feFlood flood-opacity="0" result="BackgroundImageFix"></feFlood>
      <feColorMatrix in="SourceAlpha" values="0 0 0 0 0 0 0 0 0 0 0 0 0 0 0 0 0 0 127 0"></feColorMatrix>
      <feOffset dy="4"></feOffset>
      <feGaussianBlur stdDeviation="2"></feGaussianBlur>
      <feColorMatrix values="0 0 0 0 0 0 0 0 0 0 0 0 0 0 0 0 0 0 0.25 0"></feColorMatrix>
      <feBlend in2="BackgroundImageFix" result="effect1_dropShadow"></feBlend>
      <feBlend in="SourceGraphic" in2="effect1_dropShadow" result="shape"></feBlend>
    </filter>
  </defs>
</svg>
