<svg xmlns="http://www.w3.org/2000/svg" viewBox="0 0 64 64" id="Photo">
  <path d="M20.12119,27.39991c7.38141-.41028,6.13788-11.15436-1.14166-9.86865-5.75092,1.47186-4.73022,9.77325,1.14166,9.86865Zm-.68457-7.92139c3.85492-.80841,5.21002,4.82977,1.36908,5.84131-3.87592,.80621-5.19495-4.8399-1.36908-5.84131Z" fill="#3bafda" class="color000000 svgShape"></path>
  <path d="M57.93857,30.55665v-1.10107c-.10382-3.9563-5.89697-3.95477-6,.00006,0-.00006,0,.99994,0,.99994h-2v-1c0-2.20557-1.79395-4-4-4h-7.63458l-3.00214-12.77637c-.30273-1.30176-1.0957-2.40674-2.2334-3.11182-1.1377-.7041-2.48047-.92188-3.77832-.61523L5.93174,14.43165c-2.6283,.55383-4.4007,3.40143-3.7265,6.00195-.00006,0,6.84076,29.21289,6.84076,29.21289,.30762,1.29932,1.10156,2.40283,2.23535,3.10645,1.13867,.70709,2.48602,.92352,3.77539,.61621l6.88184-1.61212v3.69855c0,2.75684,2.24316,5,5,5h30c2.75684,0,5-2.24316,5-5v-20c0-2.41443-1.7207-4.43427-4-4.89893Zm-4-1.10107c.02344-1.31439,1.97687-1.31384,2,0v1h-2v-1Zm-16-2h8c1.10254,0,2,.89697,2,2v1h-12v-1c0-1.10303,.89746-2,2-2Zm-16,22.24713l-7.3418,1.71967c-.77539,.18555-1.58008,.05371-2.26074-.36914-.68164-.42285-1.15918-1.08643-1.34375-1.86572L4.15146,19.97511c-.40228-1.56036,.65704-3.26355,2.23535-3.5957l23.3623-5.48047c1.56049-.4035,3.27386,.65637,3.60547,2.23535l2.97559,12.66479c-1.4057,.62091-2.3916,2.02374-2.3916,3.65649v1h-4.7381l-.14862-.63184c3.1582-2.81396,4.50781-7.06055,3.53027-11.23779l-.71875-3.0459c-.18066-.77881-.6543-1.44092-1.33301-1.86328-2.1875-1.43219-5.16235,.69147-4.5058,3.22565-.00006-.00006,.7099,3.05219,.7099,3.05219,.60254,2.55957-.63086,5.1416-3,6.28027l-4.23047,2.04004c-4.91992,2.37256-7.48633,7.74268-6.23926,13.05811l.93945,4.01807c.18066,.7793,.6543,1.44092,1.33301,1.86377,2.15692,1.44385,5.19019-.72284,4.51459-3.22961-.40002-2.05017-1.70319-5.34308-.70502-7.35144l1.89844,8.09961c.07983,.34167,.34412,.64221,.69336,.71417v4.25513Zm0-14.24713v3.47247l-1.17676-5.02032c-.1507-.75458-1.18097-1.03418-1.69434-.46533-1.78223,1.85352-2.49707,4.4624-1.91211,6.9834l.94922,4.01709c.13196,.51941-.22644,1.0899-.75391,1.19922-.52008,.13068-1.08765-.21576-1.19824-.74463l-.94043-4.02051c-1.03125-4.39648,1.09082-8.83789,5.16113-10.80029l4.22949-2.03955c3.2207-1.54785,4.89844-5.06006,4.0791-8.53809l-.70996-3.05078c-.22949-.83148,.78656-1.55933,1.50195-1.07367,.22461,.13959,.38086,.35883,.44141,.62054l.71973,3.04834c.84863,3.62646-.42383,7.31689-3.32031,9.63086-.59021,.42096-.30908,1.21173-.1684,1.78125-2.82715-.11023-5.21411,2.16498-5.20758,5Zm38,20c0,1.6543-1.3457,3-3,3H26.93857c-1.6543,0-3-1.3457-3-3v-20c0-1.6543,1.3457-3,3-3h30c1.6543,0,3,1.3457,3,3v20Z" fill="#3bafda" class="color000000 svgShape"></path>
  <path d="M41.93857,34.45557c-6.06543,0-11,4.93457-11,11,.60419,14.59302,21.39801,14.58875,22-.00012,0-6.06531-4.93457-10.99988-11-10.99988Zm0,20c-4.96289,0-9-4.0376-9-9,.49438-11.93976,17.50745-11.93628,18,.00006,0,4.96234-4.03711,8.99994-9,8.99994Z" fill="#3bafda" class="color000000 svgShape"></path>
  <path d="M41.93857 38.45557c-1.31323.02283-1.31573 1.97711.00006 2 2.75677 0 4.99994 2.24316 4.99994 5 0 .55225.44727 1 1 1s1-.44775 1-1c0-3.85986-3.14062-7-7-7zM15.05674 8.88233c.323 1.27911 2.22272.8313 1.94922-.45026 0 .00006-.95215-4.12494-.95215-4.12494-.32001-1.27191-2.22247-.83691-1.94922.4502l.95215 4.125zM20.47177 9.08155c.46161.28967 1.08337.1543 1.37793-.31836l1.58594-2.53809c.29297-.46826.15039-1.08496-.31738-1.37793-.46875-.29346-1.08594-.15039-1.37793.31836l-1.58594 2.53809c-.29297.46826-.15039 1.08496.31738 1.37793zM8.30869 9.71729l2.53906 1.58643c1.12079.67706 2.16534-.97815 1.06049-1.69635.00006.00006-2.539-1.58636-2.539-1.58636-1.12628-.67847-2.1626.9812-1.06055 1.69629z" fill="#3bafda" class="color000000 svgShape"></path>
</svg>
